<mxfile host="65bd71144e">
    <diagram id="Kv8KQUVrkOVbgMGfl4k4" name="harbor-components">
        <mxGraphModel dx="693" dy="318" grid="1" gridSize="10" guides="1" tooltips="1" connect="1" arrows="1" fold="1" page="1" pageScale="1" pageWidth="850" pageHeight="1100" math="0" shadow="0">
            <root>
                <mxCell id="0"/>
                <mxCell id="1" parent="0"/>
                <mxCell id="2" value="逻辑" style="rounded=1;whiteSpace=wrap;html=1;fillColor=#fff2cc;strokeColor=#d6b656;" parent="1" vertex="1">
                    <mxGeometry x="230" y="30" width="80" height="30" as="geometry"/>
                </mxCell>
                <mxCell id="3" value="第三方" style="rounded=1;whiteSpace=wrap;html=1;fillColor=#f8cecc;strokeColor=#b85450;" parent="1" vertex="1">
                    <mxGeometry x="350" y="30" width="80" height="30" as="geometry"/>
                </mxCell>
                <mxCell id="4" value="变量" style="rounded=1;whiteSpace=wrap;html=1;fillColor=#6a00ff;strokeColor=#3700CC;fontColor=#ffffff;" parent="1" vertex="1">
                    <mxGeometry x="480" y="30" width="80" height="30" as="geometry"/>
                </mxCell>
                <mxCell id="5" value="第三方&lt;br&gt;Optional" style="rounded=1;whiteSpace=wrap;html=1;fillColor=#f8cecc;strokeColor=#b85450;dashed=1;" parent="1" vertex="1">
                    <mxGeometry x="630" y="30" width="80" height="30" as="geometry"/>
                </mxCell>
                <mxCell id="6" value="第三方参数" style="rounded=1;whiteSpace=wrap;html=1;fillColor=#fa6800;strokeColor=#C73500;fontColor=#000000;" parent="1" vertex="1">
                    <mxGeometry x="110" y="30" width="80" height="30" as="geometry"/>
                </mxCell>
                <mxCell id="7" value="Harbor" style="points=[[0,0],[0.25,0],[0.5,0],[0.75,0],[1,0],[1,0.25],[1,0.5],[1,0.75],[1,1],[0.75,1],[0.5,1],[0.25,1],[0,1],[0,0.75],[0,0.5],[0,0.25]];outlineConnect=0;gradientColor=none;html=1;whiteSpace=wrap;fontSize=12;fontStyle=0;shape=mxgraph.aws4.group;grIcon=mxgraph.aws4.group_aws_cloud_alt;strokeColor=#232F3E;fillColor=none;verticalAlign=top;align=left;spacingLeft=30;fontColor=#232F3E;dashed=0;labelBackgroundColor=#ffffff;container=1;pointerEvents=0;collapsible=0;recursiveResize=0;" parent="1" vertex="1">
                    <mxGeometry x="50" y="80" width="780" height="650" as="geometry"/>
                </mxCell>
                <mxCell id="8" value="nginx-photon" style="rounded=1;whiteSpace=wrap;html=1;fillColor=#fa6800;strokeColor=#C73500;fontColor=#000000;" parent="7" vertex="1">
                    <mxGeometry x="100" y="70" width="140" height="30" as="geometry"/>
                </mxCell>
                <mxCell id="9" value="harbor-jobservice" style="rounded=1;whiteSpace=wrap;html=1;fillColor=#fa6800;strokeColor=#C73500;fontColor=#000000;" parent="7" vertex="1">
                    <mxGeometry x="100" y="130" width="140" height="30" as="geometry"/>
                </mxCell>
                <mxCell id="10" value="harbor-core" style="rounded=1;whiteSpace=wrap;html=1;fillColor=#fa6800;strokeColor=#C73500;fontColor=#000000;" parent="7" vertex="1">
                    <mxGeometry x="305" y="80" width="140" height="30" as="geometry"/>
                </mxCell>
                <mxCell id="11" value="trivy-adapter-photon" style="rounded=1;whiteSpace=wrap;html=1;fillColor=#fa6800;strokeColor=#C73500;fontColor=#000000;" parent="7" vertex="1">
                    <mxGeometry x="320" y="140" width="140" height="30" as="geometry"/>
                </mxCell>
                <mxCell id="12" value="registry-photon" style="rounded=1;whiteSpace=wrap;html=1;fillColor=#fa6800;strokeColor=#C73500;fontColor=#000000;" parent="7" vertex="1">
                    <mxGeometry x="500" y="60" width="140" height="30" as="geometry"/>
                </mxCell>
                <mxCell id="13" value="harbor-portal" style="rounded=1;whiteSpace=wrap;html=1;fillColor=#fa6800;strokeColor=#C73500;fontColor=#000000;" parent="7" vertex="1">
                    <mxGeometry x="500" y="150" width="140" height="30" as="geometry"/>
                </mxCell>
                <mxCell id="14" value="redis-photon" style="rounded=1;whiteSpace=wrap;html=1;fillColor=#fa6800;strokeColor=#C73500;fontColor=#000000;" parent="7" vertex="1">
                    <mxGeometry x="340" y="210" width="140" height="30" as="geometry"/>
                </mxCell>
                <mxCell id="15" value="harbor-db" style="rounded=1;whiteSpace=wrap;html=1;fillColor=#fa6800;strokeColor=#C73500;fontColor=#000000;" parent="7" vertex="1">
                    <mxGeometry x="510" y="230" width="140" height="30" as="geometry"/>
                </mxCell>
                <mxCell id="16" value="harbor-registryctl" style="rounded=1;whiteSpace=wrap;html=1;fillColor=#fa6800;strokeColor=#C73500;fontColor=#000000;" parent="7" vertex="1">
                    <mxGeometry x="340" y="310" width="140" height="30" as="geometry"/>
                </mxCell>
                <mxCell id="17" value="harbor-log" style="rounded=1;whiteSpace=wrap;html=1;fillColor=#fa6800;strokeColor=#C73500;fontColor=#000000;" parent="7" vertex="1">
                    <mxGeometry x="540" y="300" width="140" height="30" as="geometry"/>
                </mxCell>
            </root>
        </mxGraphModel>
    </diagram>
</mxfile>
